<svg width="74" height="14" viewBox="0 0 74 14" fill="none" xmlns="http://www.w3.org/2000/svg">
<path d="M7 0L9.42344 3.66442L13.6574 4.83688L10.9212 8.27408L11.1145 12.6631L7 11.123L2.8855 12.6631L3.07879 8.27408L0.342604 4.83688L4.57656 3.66442L7 0Z" fill="#E60000"/>
<path d="M22 0L24.4234 3.66442L28.6574 4.83688L25.9212 8.27408L26.1145 12.6631L22 11.123L17.8855 12.6631L18.0788 8.27408L15.3426 4.83688L19.5766 3.66442L22 0Z" fill="#E60000"/>
<path d="M37 0L39.4234 3.66442L43.6574 4.83688L40.9212 8.27408L41.1145 12.6631L37 11.123L32.8855 12.6631L33.0788 8.27408L30.3426 4.83688L34.5766 3.66442L37 0Z" fill="#E60000"/>
<path d="M52 0L54.4234 3.66442L58.6574 4.83688L55.9212 8.27408L56.1145 12.6631L52 11.123L47.8855 12.6631L48.0788 8.27408L45.3426 4.83688L49.5766 3.66442L52 0Z" fill="#E60000"/>
<path d="M67 0L69.4234 3.66442L73.6574 4.83688L70.9212 8.27408L71.1145 12.6631L67 11.123L62.8855 12.6631L63.0788 8.27408L60.3426 4.83688L64.5766 3.66442L67 0Z" fill="#999999"/>
</svg>
