<svg width="75" height="14" viewBox="0 0 75 14" fill="none" xmlns="http://www.w3.org/2000/svg">
<path d="M7.2793 0L9.70274 3.66442L13.9367 4.83688L11.2005 8.27408L11.3938 12.6631L7.2793 11.123L3.1648 12.6631L3.35809 8.27408L0.621901 4.83688L4.85586 3.66442L7.2793 0Z" fill="#E60000"/>
<path d="M22.2793 0L24.7027 3.66442L28.9367 4.83688L26.2005 8.27408L26.3938 12.6631L22.2793 11.123L18.1648 12.6631L18.3581 8.27408L15.6219 4.83688L19.8559 3.66442L22.2793 0Z" fill="#E60000"/>
<path d="M37.2793 0L39.7027 3.66442L43.9367 4.83688L41.2005 8.27408L41.3938 12.6631L37.2793 11.123L33.1648 12.6631L33.3581 8.27408L30.6219 4.83688L34.8559 3.66442L37.2793 0Z" fill="#E60000"/>
<path d="M52.2793 0L54.7027 3.66442L58.9367 4.83688L56.2005 8.27408L56.3938 12.6631L52.2793 11.123L48.1648 12.6631L48.3581 8.27408L45.6219 4.83688L49.8559 3.66442L52.2793 0Z" fill="#E60000"/>
<path d="M63.0907 14L67.6395 12.2973V0L64.9602 4.05129L60.2793 5.34752L63.3044 9.14759L63.0907 14Z" fill="#E60000"/>
<path d="M70.3189 4.05129L67.6396 0V12.2973L72.1885 14L71.9748 9.14759L74.9999 5.34752L70.3189 4.05129Z" fill="#999999"/>
</svg>
